<svg width="499" height="690" viewBox="0 0 499 690" fill="none" xmlns="http://www.w3.org/2000/svg">
<path d="M400.125 0H98.5927C44.485 0 0.218811 44.263 0.218811 98.3707V591.535C0.218811 645.649 44.4818 689.912 98.5927 689.912H400.125C454.236 689.912 498.502 645.649 498.502 591.535V98.3707C498.499 44.263 454.233 0 400.125 0ZM94.2809 600.126H37.6516V544.06H94.2809V600.126ZM53.4394 323.686V113.208C53.4394 75.4252 84.3217 44.5428 122.12 44.5428H380.172C417.957 44.5428 448.821 75.4252 448.821 113.208V323.686C448.821 361.465 417.957 392.348 380.172 392.348H122.117C84.3217 392.348 53.4394 361.465 53.4394 323.686ZM362.972 449.848C362.972 462.358 352.832 472.498 340.319 472.498C327.81 472.498 317.666 462.358 317.666 449.848C317.666 437.336 327.81 427.199 340.319 427.199C352.832 427.199 362.972 437.336 362.972 449.848ZM155.632 472.498C143.123 472.498 132.982 462.358 132.982 449.848C132.982 437.336 143.123 427.199 155.632 427.199C168.145 427.199 178.285 437.336 178.285 449.848C178.285 462.355 168.145 472.498 155.632 472.498ZM227.08 449.848C227.08 437.336 237.22 427.199 249.729 427.199C262.242 427.199 272.382 437.336 272.382 449.848C272.382 462.358 262.242 472.498 249.729 472.498C237.22 472.498 227.08 462.355 227.08 449.848ZM464.589 571.829H264.709V515.184H464.589V571.829Z" fill="#030104"/>
</svg>
