<?xml version="1.0" standalone="no"?>
<!DOCTYPE svg PUBLIC "-//W3C//DTD SVG 20010904//EN"
 "http://www.w3.org/TR/2001/REC-SVG-20010904/DTD/svg10.dtd">
<svg version="1.0" xmlns="http://www.w3.org/2000/svg"
 width="800.000000pt" height="600.000000pt" viewBox="0 0 800.000000 600.000000"
 preserveAspectRatio="xMidYMid meet">

<g transform="translate(0.000000,600.000000) scale(0.100000,-0.100000)"
fill="#000000" stroke="none">
<path d="M3146 4625 c-53 -19 -106 -63 -130 -111 -21 -39 -21 -47 -24 -1288
-1 -840 1 -1261 8 -1287 14 -52 67 -118 115 -143 39 -21 49 -21 770 -21 l730
0 47 28 c52 30 89 74 107 126 15 46 16 2488 1 2543 -15 52 -67 117 -115 142
-39 21 -52 21 -755 23 -589 2 -722 0 -754 -12z m1483 -66 c20 -11 48 -36 61
-56 l25 -37 3 -1254 c2 -1251 2 -1254 -18 -1291 -12 -20 -37 -48 -57 -61 l-37
-25 -714 -3 c-706 -2 -714 -2 -750 18 -21 12 -49 37 -62 57 l-25 37 -3 1253
c-2 1361 -6 1280 51 1334 51 49 36 48 786 49 691 0 704 0 740 -21z"/>
<path d="M3293 4445 c-68 -29 -68 -31 -68 -411 0 -332 1 -343 21 -371 38 -51
46 -52 657 -52 618 -1 617 -1 654 55 17 26 18 56 18 370 0 332 -1 343 -21 371
-38 51 -45 52 -659 52 -463 0 -576 -2 -602 -14z m1211 -67 c14 -19 16 -70 16
-350 0 -326 0 -327 -22 -342 -20 -14 -94 -16 -605 -16 l-582 0 -15 22 c-14 19
-16 70 -16 350 0 326 0 327 22 342 20 14 94 16 605 16 l582 0 15 -22z"/>
<path d="M3280 3353 c-21 -11 -42 -33 -54 -56 -16 -34 -17 -42 -5 -74 8 -20
27 -45 42 -57 28 -21 38 -21 480 -24 510 -3 504 -4 541 71 16 34 17 42 5 74
-8 20 -27 45 -42 57 -28 21 -38 21 -480 24 -416 2 -455 1 -487 -15z m944 -65
c22 -31 20 -54 -6 -72 -20 -14 -81 -16 -470 -16 l-447 0 -15 22 c-22 31 -20
54 6 72 20 14 81 16 470 16 l447 0 15 -22z"/>
<path d="M4422 3357 c-78 -44 -77 -163 3 -201 44 -21 78 -15 110 20 51 55 37
147 -28 177 -41 20 -54 21 -85 4z m79 -71 c17 -36 4 -74 -28 -82 -30 -8 -53
15 -53 52 0 51 62 73 81 30z"/>
</g>
</svg>
