<?xml version="1.0" encoding="iso-8859-1"?>
<!-- Uploaded to: SVG Repo, www.svgrepo.com, Generator: SVG Repo Mixer Tools -->
<!DOCTYPE svg PUBLIC "-//W3C//DTD SVG 1.1//EN" "http://www.w3.org/Graphics/SVG/1.1/DTD/svg11.dtd">
<svg fill="#000000" height="800px" width="800px" version="1.1" id="Capa_1" xmlns="http://www.w3.org/2000/svg" xmlns:xlink="http://www.w3.org/1999/xlink" 
	 viewBox="0 0 486.078 486.078" xml:space="preserve">
<g>
	<path d="M476.162,205.489c-6.303-12.814-17.217-22.405-30.733-27.007c-0.56-0.19-1.122-0.364-1.685-0.536V43.621
		c0-23.632-19.225-42.857-42.855-42.857c-18.166,0-33.717,11.365-39.945,27.354C326.125,9.711,285.453,0,243.038,0
		c-42.418,0-83.091,9.711-117.903,28.117c-6.229-15.988-21.779-27.354-39.944-27.354c-23.633,0-42.859,19.226-42.859,42.857v134.326
		c-0.563,0.172-1.124,0.345-1.683,0.535c-13.517,4.602-24.431,14.193-30.733,27.007c-6.302,12.813-7.237,27.314-2.634,40.832
		l48.635,142.791v39.837c0,31.501,25.627,57.129,57.126,57.129h259.993c31.501,0,57.129-25.628,57.129-57.129v-39.835l48.63-142.794
		C483.401,232.804,482.465,218.303,476.162,205.489z M400.889,9.264c18.943,0,34.355,15.413,34.355,34.357v132.473
		c-2.336-0.313-4.689-0.479-7.053-0.479c-2.9,0-5.758,0.236-8.555,0.688V61.986c0-2.348-1.902-4.25-4.25-4.25
		c-2.348,0-4.25,1.902-4.25,4.25v116.428c-15.475,5.213-28.072,17.366-33.545,33.437l-11.063,32.48V43.621
		C366.53,24.677,381.943,9.264,400.889,9.264z M277.84,307.855c-1.407-4.684-3.728-8.975-6.768-12.656l54.235-204.697h31.456
		l-57.321,217.354H277.84z M128.049,119.035l49.794,188.82h-36.658l-13.136-38.567V119.035z M186.633,307.855L129.315,90.502h31.456
		l54.234,204.7c-3.037,3.682-5.358,7.972-6.765,12.653H186.633z M243.04,291.324c14.298,0,25.931,11.632,25.931,25.93
		c0,14.298-11.633,25.93-25.931,25.93c-14.298,0-25.931-11.632-25.931-25.93C217.11,302.956,228.743,291.324,243.04,291.324z
		 M264.014,288.65c-5.93-4.208-13.165-6.692-20.974-6.692c-7.811,0-15.047,2.485-20.978,6.694L169.565,90.502h146.949
		L264.014,288.65z M215.206,337.486c6.267,8.596,16.405,14.197,27.834,14.197c11.428,0,21.567-5.601,27.833-14.196v56.601
		c0,15.347-12.486,27.832-27.833,27.832c-15.348,0-27.834-12.485-27.834-27.832V337.486z M358.03,119.033v150.255l-13.136,38.567
		h-36.661L358.03,119.033z M243.038,8.5c41.711,0,81.63,9.688,115.59,28.023c-0.387,2.311-0.599,4.68-0.599,7.098v38.381h-229.98
		V43.621c0-2.418-0.212-4.786-0.599-7.097C161.405,18.19,201.323,8.5,243.038,8.5z M50.831,43.621
		c0-18.944,15.413-34.357,34.359-34.357c18.945,0,34.358,15.413,34.358,34.357v200.71l-11.063-32.48
		c-5.529-16.238-18.33-28.484-34.028-33.605V61.986c0-2.348-1.902-4.25-4.25-4.25c-2.348,0-4.25,1.902-4.25,4.25v114.245
		c-2.642-0.402-5.338-0.616-8.071-0.616c-2.364,0-4.719,0.165-7.056,0.479V43.621z M470.748,243.579L422.871,384.16h-60.549
		c-2.348,0-4.25,1.902-4.25,4.25c0,2.348,1.902,4.25,4.25,4.25h59.342v36.289c0,26.814-21.815,48.629-48.629,48.629H113.042
		c-26.813,0-48.626-21.814-48.626-48.629v-36.291h78.289c2.348,0,4.25-1.902,4.25-4.25c0-2.348-1.902-4.25-4.25-4.25H63.209
		L15.329,243.581c-3.872-11.368-3.086-23.564,2.215-34.34c5.3-10.776,14.479-18.843,25.846-22.712
		c4.702-1.602,9.58-2.414,14.498-2.414c19.246,0,36.347,12.247,42.553,30.476l33.68,98.885c0.587,1.722,2.204,2.88,4.023,2.88
		h45.201c0.004,0,0.008,0.001,0.012,0.001c0.005,0,0.01-0.001,0.016-0.001h23.387c0,0.004,0,0.008,0,0.012
		c-0.033,0.636-0.052,1.275-0.052,1.92v75.801c0,20.033,16.3,36.332,36.334,36.332s36.333-16.299,36.333-36.332v-75.801
		c0-0.645-0.018-1.284-0.052-1.92c0-0.004,0-0.008,0-0.012h23.384c0.004,0,0.01,0.001,0.015,0.001c0.004,0,0.008-0.001,0.012-0.001
		h45.204c1.819,0,3.437-1.158,4.023-2.88l33.68-98.885c6.207-18.229,23.308-30.476,42.553-30.476c4.917,0,9.795,0.813,14.497,2.414
		c11.367,3.869,20.546,11.936,25.847,22.712C473.836,220.018,474.622,232.212,470.748,243.579z"/>
	<path d="M321.916,392.66H332.5c2.348,0,4.25-1.902,4.25-4.25c0-2.348-1.902-4.25-4.25-4.25h-10.584c-2.348,0-4.25,1.902-4.25,4.25
		C317.666,390.758,319.569,392.66,321.916,392.66z"/>
	<path d="M353.536,448.127H135.926c-2.348,0-4.25,1.902-4.25,4.25c0,2.348,1.902,4.25,4.25,4.25h217.609
		c2.348,0,4.25-1.902,4.25-4.25C357.786,450.029,355.883,448.127,353.536,448.127z"/>
</g>
</svg>